<?xml version="1.0" encoding="UTF-8" standalone="no"?>
<!-- Created with Inkscape (http://www.inkscape.org/) -->

<svg
   xmlns:dc="http://purl.org/dc/elements/1.1/"
   xmlns:cc="http://creativecommons.org/ns#"
   xmlns:rdf="http://www.w3.org/1999/02/22-rdf-syntax-ns#"
   xmlns:svg="http://www.w3.org/2000/svg"
   xmlns="http://www.w3.org/2000/svg"
   xmlns:sodipodi="http://sodipodi.sourceforge.net/DTD/sodipodi-0.dtd"
   xmlns:inkscape="http://www.inkscape.org/namespaces/inkscape"
   width="210mm"
   height="297mm"
   id="svg10679"
   version="1.1"
   inkscape:version="0.48.4 r9939"
   sodipodi:docname="alemao.svg">
  <defs
     id="defs10681">
    <marker
       inkscape:stockid="DotM"
       orient="auto"
       refY="0"
       refX="0"
       id="DotM"
       style="overflow:visible">
      <path
         inkscape:connector-curvature="0"
         id="path8998"
         d="m -2.5,-1 c 0,2.76 -2.24,5 -5,5 -2.76,0 -5,-2.24 -5,-5 0,-2.76 2.24,-5 5,-5 2.76,0 5,2.24 5,5 z"
         style="fill-rule:evenodd;stroke:#000000;stroke-width:1pt"
         transform="matrix(0.4,0,0,0.4,2.96,0.4)" />
    </marker>
    <marker
       inkscape:stockid="DotM"
       orient="auto"
       refY="0"
       refX="0"
       id="DotM-7"
       style="overflow:visible">
      <path
         inkscape:connector-curvature="0"
         id="path8998-5"
         d="m -2.5,-1 c 0,2.76 -2.24,5 -5,5 -2.76,0 -5,-2.24 -5,-5 0,-2.76 2.24,-5 5,-5 2.76,0 5,2.24 5,5 z"
         style="fill-rule:evenodd;stroke:#000000;stroke-width:1pt"
         transform="matrix(0.4,0,0,0.4,2.96,0.4)" />
    </marker>
    <marker
       inkscape:stockid="DotM"
       orient="auto"
       refY="0"
       refX="0"
       id="DotM-0"
       style="overflow:visible">
      <path
         inkscape:connector-curvature="0"
         id="path8998-2"
         d="m -2.5,-1 c 0,2.76 -2.24,5 -5,5 -2.76,0 -5,-2.24 -5,-5 0,-2.76 2.24,-5 5,-5 2.76,0 5,2.24 5,5 z"
         style="fill-rule:evenodd;stroke:#000000;stroke-width:1pt"
         transform="matrix(0.4,0,0,0.4,2.96,0.4)" />
    </marker>
    <marker
       inkscape:stockid="DotM"
       orient="auto"
       refY="0"
       refX="0"
       id="DotM-2"
       style="overflow:visible">
      <path
         inkscape:connector-curvature="0"
         id="path8998-3"
         d="m -2.5,-1 c 0,2.76 -2.24,5 -5,5 -2.76,0 -5,-2.24 -5,-5 0,-2.76 2.24,-5 5,-5 2.76,0 5,2.24 5,5 z"
         style="fill-rule:evenodd;stroke:#000000;stroke-width:1pt"
         transform="matrix(0.4,0,0,0.4,2.96,0.4)" />
    </marker>
  </defs>
  <sodipodi:namedview
     id="base"
     pagecolor="#ffffff"
     bordercolor="#666666"
     borderopacity="1.0"
     inkscape:pageopacity="0.0"
     inkscape:pageshadow="2"
     inkscape:zoom="0.98994949"
     inkscape:cx="540.7014"
     inkscape:cy="504.38171"
     inkscape:document-units="px"
     inkscape:current-layer="layer1"
     showgrid="true"
     showguides="true"
     inkscape:guide-bbox="true"
     inkscape:window-width="1315"
     inkscape:window-height="719"
     inkscape:window-x="51"
     inkscape:window-y="25"
     inkscape:window-maximized="1">
    <inkscape:grid
       type="xygrid"
       id="grid10723" />
  </sodipodi:namedview>
  <metadata
     id="metadata10684">
    <rdf:RDF>
      <cc:Work
         rdf:about="">
        <dc:format>image/svg+xml</dc:format>
        <dc:type
           rdf:resource="http://purl.org/dc/dcmitype/StillImage" />
        <dc:title></dc:title>
      </cc:Work>
    </rdf:RDF>
  </metadata>
  <g
     inkscape:label="Camada 1"
     inkscape:groupmode="layer"
     id="layer1">
    <path
       style="fill:none;stroke:#000000;stroke-width:2;stroke-linecap:butt;stroke-linejoin:miter;stroke-miterlimit:4;stroke-opacity:1;stroke-dasharray:none"
       d="m 125.71428,463.86979 117.14286,0 0,60 -60,0 0,80 60,0 0,60 -120,0 0,-200 z"
       id="path6289"
       inkscape:connector-curvature="0" />
    <path
       style="fill:#eeeeee;fill-opacity:1;stroke:none"
       d="m 124.56296,563.86979 0,-98.48988 58.58885,0 58.58885,0 0,28.28427 0,28.28428 -30.30458,0 -30.30457,0 0,41.41626 0,41.41625 30.30457,0 30.30458,0 0,28.78935 0,28.78935 -58.58885,0 -58.58885,0 0,-98.48987 z"
       id="path7064"
       inkscape:connector-curvature="0" />
    <path
       style="fill:none;stroke:#000000;stroke-width:1px;stroke-linecap:butt;stroke-linejoin:miter;stroke-opacity:1;marker-start:url(#DotM)"
       d="m 190.70558,647.3385 27.25955,47.21491"
       id="path8910"
       inkscape:connector-curvature="0" />
    <text
       xml:space="preserve"
       style="font-size:20px;font-style:normal;font-weight:normal;line-height:125%;letter-spacing:0px;word-spacing:0px;fill:#000000;fill-opacity:1;stroke:none;font-family:Sans"
       x="220"
       y="712.36218"
       id="text9421"
       sodipodi:linespacing="125%"><tspan
         sodipodi:role="line"
         id="tspan9423"
         x="220"
         y="712.36218">a</tspan></text>
    <g
       id="g11402"
       transform="translate(0,11.50761)">
      <path
         sodipodi:nodetypes="ccccccccccccccccccccccc"
         inkscape:connector-curvature="0"
         id="path10725"
         d="m 500,712.36218 0,-60 60,0 0,-60 -60,0 0,-80 60,0 0,-60 -60,0 0,-60 -80.41841,0 -80.41842,0 0,60 -60,0 0,60 60,0 0,80 -60,0 0,60 60,0 0,60 80.41842,0 z"
         style="fill:none;stroke:#000000;stroke-width:2;stroke-linecap:butt;stroke-linejoin:miter;stroke-miterlimit:4;stroke-opacity:1;stroke-dasharray:none" />
      <path
         sodipodi:nodetypes="cc"
         inkscape:connector-curvature="0"
         id="path10763"
         d="m 294.64286,512.36218 0,80"
         style="fill:none;stroke:#000000;stroke-width:2;stroke-linecap:butt;stroke-linejoin:miter;stroke-miterlimit:4;stroke-opacity:1;stroke-dasharray:none" />
      <path
         sodipodi:nodetypes="cc"
         inkscape:connector-curvature="0"
         id="path10763-3"
         d="m 545.35715,512.71932 0,79.64286"
         style="fill:none;stroke:#000000;stroke-width:2;stroke-linecap:butt;stroke-linejoin:miter;stroke-miterlimit:4;stroke-opacity:1;stroke-dasharray:none" />
      <path
         inkscape:connector-curvature="0"
         id="path10783"
         d="m 295.71562,552.43232 0,-39.28571 21.42857,0 21.42858,0 0,39.28571 0,39.28572 -21.42858,0 -21.42857,0 0,-39.28572 z"
         style="fill:#888888;fill-opacity:1;stroke:none" />
      <path
         inkscape:connector-curvature="0"
         id="path10789"
         d="m 500.5453,552.3366 0,-39.46429 22.14286,0 22.14285,0 0,39.46429 0,39.46428 -22.14285,0 -22.14286,0 0,-39.46428 z"
         style="fill:#888888;fill-opacity:1;stroke:none" />
      <path
         sodipodi:nodetypes="cccccc"
         inkscape:connector-curvature="0"
         id="path11305"
         d="m 339.66379,512.36218 40.33621,0 0,-73.88832 80,0 0,73.88832 40,0"
         style="fill:none;stroke:#000000;stroke-width:2;stroke-linecap:butt;stroke-linejoin:miter;stroke-miterlimit:4;stroke-opacity:1;stroke-dasharray:none" />
      <path
         sodipodi:nodetypes="cccccc"
         inkscape:connector-curvature="0"
         id="path11305-3"
         d="m 339.66379,592.35779 40.33621,0 0,73.88832 80,0 0,-73.88832 40,0"
         style="fill:none;stroke:#000000;stroke-width:2;stroke-linecap:butt;stroke-linejoin:miter;stroke-miterlimit:4;stroke-opacity:1;stroke-dasharray:none" />
      <path
         inkscape:connector-curvature="0"
         id="path11344"
         d="m 339.86476,680.69491 0,-30 -30,0 -30,0 0,-28.57143 0,-28.57143 49.28572,0 49.28571,0 0,37.14286 0,37.14286 41.42857,0 41.42857,0 0,-37.14286 0,-37.14286 48.57143,0 48.57143,0 0,28.57143 0,28.57143 -30,0 -30,0 0,30 0,30 -79.28571,0 -79.28572,0 0,-30 z"
         style="fill:#cccccf;fill-opacity:1;stroke:none" />
      <path
         inkscape:connector-curvature="0"
         id="path11346"
         d="m 279.86476,482.12348 0,-28.57143 30,0 30,0 0,-30 0,-30 79.28572,0 79.28571,0 0,30 0,30 30,0 30,0 0,28.57143 0,28.57143 -48.57143,0 -48.57143,0 0,-36.42857 0,-36.42857 -41.42857,0 -41.42857,0 0,36.42857 0,36.42857 -49.28571,0 -49.28572,0 0,-28.57143 z"
         style="fill:#cccccf;fill-opacity:1;stroke:none" />
    </g>
    <g
       id="g11413">
      <path
         inkscape:connector-curvature="0"
         id="path6289-8"
         d="m 720.15802,463.86979 -117.14286,0 0,60 60,0 0,80 -60,0 0,60 120,0 0,-200 z"
         style="fill:none;stroke:#000000;stroke-width:2;stroke-linecap:butt;stroke-linejoin:miter;stroke-miterlimit:4;stroke-opacity:1;stroke-dasharray:none" />
      <path
         inkscape:connector-curvature="0"
         id="path7064-3"
         d="m 721.30934,564.21872 0,-98.48988 -58.58885,0 -58.58885,0 0,28.28427 0,28.28428 30.30458,0 30.30457,0 0,41.41625 0,41.41625 -30.30457,0 -30.30458,0 0,28.78935 0,28.78935 58.58885,0 58.58885,0 0,-98.48987 z"
         style="fill:#eeeeee;fill-opacity:1;stroke:none" />
    </g>
    <path
       style="fill:none;stroke:#000000;stroke-width:1px;stroke-linecap:butt;stroke-linejoin:miter;stroke-opacity:1;marker-start:url(#DotM)"
       d="m 530.70558,647.3385 27.25955,47.21491"
       id="path8910-3"
       inkscape:connector-curvature="0" />
    <text
       xml:space="preserve"
       style="font-size:20px;font-style:normal;font-weight:normal;line-height:125%;letter-spacing:0px;word-spacing:0px;fill:#000000;fill-opacity:1;stroke:none;font-family:Sans"
       x="560"
       y="712.36218"
       id="text9421-2"
       sodipodi:linespacing="125%"><tspan
         sodipodi:role="line"
         id="tspan9423-2"
         x="560"
         y="712.36218">a</tspan></text>
    <path
       style="fill:none;stroke:#000000;stroke-width:1px;stroke-linecap:butt;stroke-linejoin:miter;stroke-opacity:1;marker-start:url(#DotM)"
       d="m 521.37017,556.23799 46.56961,28.34787"
       id="path8910-5"
       inkscape:connector-curvature="0" />
    <text
       xml:space="preserve"
       style="font-size:20px;font-style:normal;font-weight:normal;line-height:125%;letter-spacing:0px;word-spacing:0px;fill:#000000;fill-opacity:1;stroke:none;font-family:Sans"
       x="570"
       y="592.36218"
       id="text9421-5"
       sodipodi:linespacing="125%"><tspan
         sodipodi:role="line"
         id="tspan9423-3"
         x="570"
         y="592.36218">a</tspan></text>
  </g>
</svg>
